<?xml version="1.0" standalone="no"?>
<!DOCTYPE svg PUBLIC "-//W3C//DTD SVG 20010904//EN"
 "http://www.w3.org/TR/2001/REC-SVG-20010904/DTD/svg10.dtd">
<svg version="1.0" xmlns="http://www.w3.org/2000/svg"
 width="1536.000000pt" height="1024.000000pt" viewBox="0 0 1536.000000 1024.000000"
 preserveAspectRatio="xMidYMid meet">

<g transform="translate(0.000000,1024.000000) scale(0.100000,-0.100000)"
fill="#000000" stroke="none">
<path d="M4965 7511 c-429 -161 -1871 -696 -2580 -956 -208 -76 -231 -87 -255
-128 -36 -58 -27 -107 58 -329 l77 -203 5 -1385 5 -1385 22 -48 c34 -71 113
-150 186 -183 l62 -29 1330 0 1330 0 60 28 c97 45 164 121 198 221 16 45 17
168 17 1415 0 751 -4 1371 -8 1377 -22 34 -40 34 -1281 34 -735 0 -1231 4
-1231 9 0 11 -84 -21 1286 492 941 353 1123 424 1134 444 14 26 15 23 -126
403 -59 160 -72 187 -101 210 -45 34 -119 39 -188 13z m-25 -407 c124 -97 226
-182 228 -189 2 -7 -7 -16 -20 -20 -13 -4 -98 -36 -189 -71 -91 -34 -177 -66
-190 -69 -22 -5 -54 16 -215 141 -289 225 -293 228 -290 238 4 17 420 164 436
155 8 -4 116 -87 240 -185z m-1013 -187 c43 -35 149 -118 236 -186 87 -68 157
-127 155 -133 -4 -11 -393 -158 -418 -158 -17 0 -481 358 -487 376 -3 10 382
160 419 163 9 0 51 -27 95 -62z m-674 -438 c130 -101 235 -188 234 -193 -2 -5
-99 -45 -216 -89 l-212 -79 -62 48 c-300 234 -427 338 -419 346 15 15 406 157
423 154 8 -2 122 -86 252 -187z m301 -647 c5 -8 -312 -452 -357 -499 -20 -22
-26 -23 -228 -23 -114 0 -210 4 -213 8 -2 4 77 123 176 265 l180 257 218 0
c121 0 221 -4 224 -8z m860 0 c3 -5 -41 -71 -97 -148 -56 -77 -138 -190 -182
-252 l-80 -112 -155 0 c-85 -1 -180 -3 -211 -6 -32 -4 -59 -2 -62 3 -5 8 300
461 343 511 12 14 435 18 444 4z m855 -1 c10 -7 -27 -67 -164 -259 l-177 -249
-212 -5 c-116 -3 -215 -2 -220 3 -8 7 324 495 347 510 14 10 410 9 426 0z"/>
<path d="M8307 6988 c-42 -76 -87 -165 -87 -173 0 -3 35 -5 78 -5 l79 0 81
110 c45 61 82 115 82 120 0 6 -41 10 -99 10 l-99 0 -35 -62z"/>
<path d="M6043 6721 c-67 -23 -112 -54 -146 -102 -59 -81 -61 -96 -65 -447 -4
-368 2 -432 51 -513 60 -100 156 -149 292 -149 125 0 209 39 261 121 47 75 72
230 38 243 -26 10 -144 7 -165 -4 -11 -6 -19 -21 -19 -36 0 -37 -25 -89 -51
-108 -14 -10 -44 -16 -75 -16 -65 0 -98 29 -113 101 -14 65 -14 563 0 627 15
71 46 97 115 97 47 0 58 -4 84 -31 26 -25 32 -41 38 -95 l7 -64 99 -3 99 -3
-5 86 c-10 151 -87 266 -202 300 -67 20 -179 19 -243 -4z"/>
<path d="M9635 6727 c-94 -31 -158 -88 -197 -172 -22 -49 -23 -59 -26 -400 -4
-394 1 -431 63 -517 91 -124 298 -161 448 -80 60 32 102 79 136 152 l26 55 3
330 c4 353 -1 407 -43 480 -33 57 -92 110 -150 136 -61 28 -199 36 -260 16z
m206 -225 c17 -19 30 -48 34 -74 3 -24 5 -173 3 -333 -3 -255 -5 -294 -21
-322 -49 -90 -191 -79 -224 17 -8 24 -12 131 -12 338 -1 330 2 349 55 391 24
19 38 22 83 19 45 -4 59 -10 82 -36z"/>
<path d="M10453 6722 c-96 -34 -159 -98 -194 -197 -19 -54 -20 -78 -17 -414 3
-351 3 -357 27 -409 33 -73 116 -147 188 -168 80 -23 222 -16 285 14 62 30
118 86 148 148 24 47 25 56 25 259 l0 210 -160 0 -160 0 -3 -73 c-4 -90 4
-102 69 -102 l49 0 0 -85 c0 -106 -18 -157 -65 -179 -71 -34 -145 -10 -175 56
-18 39 -20 67 -20 338 0 165 4 311 10 331 14 51 50 80 104 86 92 11 136 -31
145 -137 l6 -65 100 0 100 0 -1 85 c0 99 -20 153 -80 220 -62 68 -122 93 -234
97 -73 3 -107 -1 -147 -15z"/>
<path d="M11300 6723 c-101 -35 -178 -112 -205 -208 -13 -45 -15 -110 -13
-407 3 -347 3 -354 27 -405 27 -61 93 -126 159 -156 39 -18 65 -22 157 -22
101 0 115 2 168 29 39 19 71 44 97 78 67 84 70 106 70 499 0 331 -1 351 -21
406 -29 78 -104 153 -182 182 -70 26 -190 28 -257 4z m199 -209 c17 -14 35
-42 41 -62 6 -21 10 -161 10 -329 0 -317 -5 -355 -55 -387 -65 -43 -154 -21
-187 45 -16 30 -18 68 -18 342 0 334 3 354 55 395 41 32 114 30 154 -4z"/>
<path d="M6800 6698 c-12 -29 -250 -1123 -250 -1149 0 -17 9 -19 99 -19 68 0
102 4 108 12 4 7 17 53 28 103 l20 90 135 0 135 0 16 -87 c24 -128 13 -118
128 -118 55 0 102 4 105 9 3 4 -33 179 -80 387 -46 208 -103 462 -125 564 -22
102 -44 195 -49 208 -9 21 -14 22 -135 22 -121 0 -126 -1 -135 -22z m150 -282
c0 -3 17 -96 39 -208 21 -112 42 -220 45 -240 l7 -38 -102 0 c-100 0 -101 0
-96 23 6 22 87 456 87 463 0 2 5 4 10 4 6 0 10 -2 10 -4z"/>
<path d="M7266 6704 c-9 -23 -7 -157 2 -171 5 -8 45 -13 117 -15 l110 -3 5
-490 5 -490 100 0 100 0 3 492 2 492 113 3 112 3 0 95 0 95 -331 3 c-296 2
-332 1 -338 -14z"/>
<path d="M8162 6708 c-5 -7 -19 -60 -32 -118 -12 -58 -66 -310 -121 -560 -54
-250 -99 -464 -99 -477 0 -22 2 -23 99 -23 55 0 102 4 105 9 3 5 13 42 21 82
8 41 17 84 20 97 5 21 9 22 140 22 152 0 137 10 156 -105 18 -108 14 -105 129
-105 89 0 100 2 100 18 0 38 -254 1157 -264 1164 -20 14 -243 9 -254 -4z m189
-528 c25 -132 43 -243 40 -245 -2 -3 -47 -5 -98 -5 l-95 0 6 28 c3 15 22 115
41 222 45 244 44 240 53 240 4 0 28 -108 53 -240z"/>
<path d="M8792 6128 l3 -593 255 0 255 0 0 95 0 95 -152 3 -153 3 -2 492 -3
492 -103 3 -102 3 2 -593z"/>
<path d="M12016 5500 c-575 -91 -974 -584 -943 -1165 11 -191 67 -364 173
-526 62 -95 218 -251 314 -314 357 -233 815 -239 1181 -17 275 167 444 414
494 723 100 618 -274 1163 -885 1289 -76 15 -263 21 -334 10z m228 -266 c64
-22 138 -95 159 -158 37 -109 11 -221 -69 -298 -52 -49 -106 -70 -181 -70
-144 -1 -263 124 -263 273 0 109 91 227 199 260 43 13 105 10 155 -7z m-537
-585 c96 -46 160 -161 150 -269 -6 -73 -35 -127 -93 -179 -206 -181 -520 31
-429 290 55 155 226 228 372 158z m1135 3 c53 -24 109 -77 133 -128 30 -62 32
-169 5 -233 -71 -164 -282 -211 -419 -94 -63 54 -95 123 -95 208 0 61 4 78 30
125 73 129 217 180 346 122z m-611 -145 c19 -13 40 -39 48 -61 40 -104 -82
-207 -179 -150 -55 33 -77 116 -46 172 33 61 117 79 177 39z m11 -413 c177
-60 238 -291 114 -431 -139 -158 -394 -104 -453 96 -61 211 135 405 339 335z"/>
<path d="M5855 5279 c-3 -8 -4 -246 -3 -529 l3 -515 180 0 c224 0 262 11 345
94 77 77 88 118 96 335 11 314 -15 446 -106 535 -70 68 -126 83 -332 89 -145
4 -179 2 -183 -9z m365 -214 c52 -47 55 -64 55 -310 0 -250 -3 -269 -57 -308
-21 -15 -44 -21 -95 -21 l-68 -1 -3 334 -2 333 74 -4 c56 -2 80 -8 96 -23z"/>
<path d="M6632 5282 c-10 -7 -12 -119 -10 -528 l3 -519 244 -3 c171 -2 248 1
257 9 20 16 19 162 0 179 -11 8 -55 10 -151 8 -97 -3 -139 0 -146 8 -5 7 -8
59 -7 120 l3 109 115 5 115 5 5 78 c3 43 1 85 -3 93 -6 11 -34 14 -123 14
l-115 0 3 113 3 112 134 3 c79 1 140 7 148 14 17 14 18 159 1 176 -14 14 -454
17 -476 4z"/>
<path d="M9673 4030 c-84 -18 -169 -82 -206 -155 -28 -56 -40 -145 -28 -209
21 -114 79 -180 282 -317 64 -44 125 -92 135 -107 25 -36 25 -118 2 -155 -26
-39 -88 -55 -141 -36 -47 16 -87 66 -87 108 0 42 -17 51 -101 51 -56 0 -80 -4
-89 -15 -20 -24 -4 -121 31 -192 55 -113 139 -158 294 -157 144 0 236 52 297
167 20 36 23 57 23 152 0 103 -2 113 -30 163 -38 69 -104 129 -249 225 -127
85 -156 118 -156 182 1 88 97 134 176 86 30 -18 43 -42 58 -114 l7 -28 92 3
92 3 -1 66 c-1 120 -75 227 -182 264 -58 19 -164 27 -219 15z"/>
<path d="M5855 4008 c-3 -7 -4 -267 -3 -578 l3 -565 100 0 100 0 5 230 5 230
143 3 143 3 -3 92 -3 92 -140 5 -140 5 -3 143 -3 142 159 0 c109 0 162 4 170
12 7 7 12 43 12 93 0 50 -5 86 -12 93 -18 18 -527 17 -533 0z"/>
<path d="M6545 4008 c-3 -7 -4 -267 -3 -578 l3 -565 100 0 100 0 0 575 0 575
-98 3 c-72 2 -99 -1 -102 -10z"/>
<path d="M6955 4008 c-3 -7 -4 -267 -3 -578 l3 -565 265 0 265 0 3 94 c2 69
-1 97 -10 103 -7 4 -82 8 -165 8 l-153 0 -2 473 -3 472 -98 3 c-72 2 -99 -1
-102 -10z"/>
<path d="M7634 4012 c-15 -10 -25 -1127 -10 -1142 14 -14 179 -13 193 1 9 9
10 112 6 388 -3 241 -2 372 4 366 5 -5 47 -131 92 -280 45 -148 86 -280 91
-292 9 -21 16 -23 84 -23 88 0 68 -35 167 290 39 129 76 251 83 270 9 28 12
-43 16 -345 l5 -380 91 -3 c67 -2 94 1 102 11 8 10 10 164 4 578 l-7 564 -126
3 c-93 2 -129 -1 -136 -10 -9 -11 -48 -137 -155 -508 -29 -101 -42 -129 -53
-119 -2 3 -46 142 -95 309 -50 168 -96 310 -102 317 -12 14 -234 19 -254 5z"/>
<path d="M8757 4013 c-10 -9 -8 -1125 1 -1141 7 -9 69 -12 278 -10 l269 3 3
94 c2 69 -1 97 -10 103 -7 4 -84 8 -170 8 -181 0 -167 -9 -163 110 1 41 3 92
4 113 l1 37 123 0 c67 0 128 4 135 8 9 6 12 33 10 98 l-3 89 -135 5 -135 5 1
90 c1 50 2 111 3 138 l1 47 154 0 c119 0 156 3 165 14 8 9 11 46 9 103 l-3 88
-266 3 c-146 1 -268 -1 -272 -5z"/>
<path d="M11070 3645 c-156 -69 -327 -83 -496 -40 -54 14 -104 25 -111 25 -10
0 -13 -55 -13 -255 0 -292 -2 -284 90 -304 327 -70 707 5 1017 201 35 22 63
45 63 52 0 7 -15 17 -32 24 -74 26 -225 136 -321 233 -54 54 -104 99 -110 98
-7 -1 -46 -16 -87 -34z"/>
</g>
</svg>
